<svg width="32" height="32" viewBox="0 0 32 32" fill="none" xmlns="http://www.w3.org/2000/svg">
<path d="M26 17.5C26.8284 17.5 27.5 16.8284 27.5 16C27.5 15.1716 26.8284 14.5 26 14.5L26 17.5ZM4.93934 14.9393C4.35355 15.5251 4.35355 16.4749 4.93934 17.0607L14.4853 26.6066C15.0711 27.1924 16.0208 27.1924 16.6066 26.6066C17.1924 26.0208 17.1924 25.0711 16.6066 24.4853L8.12132 16L16.6066 7.51472C17.1924 6.92893 17.1924 5.97918 16.6066 5.3934C16.0208 4.80761 15.0711 4.80761 14.4853 5.3934L4.93934 14.9393ZM26 14.5L6 14.5L6 17.5L26 17.5L26 14.5Z" fill="white"/>
</svg>
