<svg width="32" height="32" viewBox="0 0 32 32" fill="none" xmlns="http://www.w3.org/2000/svg">
<path d="M6 14.5C5.17157 14.5 4.5 15.1716 4.5 16C4.5 16.8284 5.17157 17.5 6 17.5L6 14.5ZM27.0607 17.0607C27.6464 16.4749 27.6464 15.5251 27.0607 14.9393L17.5147 5.3934C16.9289 4.80761 15.9792 4.80761 15.3934 5.3934C14.8076 5.97919 14.8076 6.92893 15.3934 7.51472L23.8787 16L15.3934 24.4853C14.8076 25.0711 14.8076 26.0208 15.3934 26.6066C15.9792 27.1924 16.9289 27.1924 17.5147 26.6066L27.0607 17.0607ZM6 17.5L26 17.5L26 14.5L6 14.5L6 17.5Z" fill="white"/>
</svg>
